<svg xmlns="http://www.w3.org/2000/svg" width="26.038" height="29.729" viewBox="0 0 26.038 29.729">
  <g id="Group_19" data-name="Group 19" transform="translate(0.1 0.1)">
    <g id="explore_1_" data-name="explore (1)">
      <path id="Path_74" data-name="Path 74" d="M30.172,4.236a2.949,2.949,0,0,0,.275-1.244,3.022,3.022,0,0,0-6.043,0,2.95,2.95,0,0,0,.275,1.244,12.92,12.92,0,1,0,5.494,0ZM26.463,2.992a.962.962,0,1,1,.962.952A.959.959,0,0,1,26.463,2.992Zm.962,24.5a10.754,10.754,0,1,1,10.86-10.753A10.819,10.819,0,0,1,27.426,27.49Z" transform="translate(-14.507)" fill="#e30613" stroke="#e30613" stroke-width="0.2"/>
      <path id="Path_75" data-name="Path 75" d="M72.34,81.492a1.025,1.025,0,0,0-.528-.534L64.62,77.767a1.038,1.038,0,0,0-1.149.21,1.012,1.012,0,0,0-.211,1.138l3.211,7.091A1.024,1.024,0,0,0,67,86.75l7.191,3.191a1.037,1.037,0,0,0,.421.089h.011a1.025,1.025,0,0,0,1.021-1.02,1,1,0,0,0-.123-.483Zm-2.733.722-1.855,1.837-1.507-3.329Zm-.4,3.279,1.855-1.837,1.507,3.329Z" transform="translate(-56.488 -67.118)" fill="#e30613" stroke="#e30613" stroke-width="0.2"/>
    </g>
  </g>
</svg>
