<svg xmlns="http://www.w3.org/2000/svg" width="27.328" height="29.206" viewBox="0 0 27.328 29.206">
  <g id="Group_23" data-name="Group 23" transform="translate(1.151 1)">
    <g id="iconfinder_-_Gear-Settings-Setting-Wheel-_3844474" transform="translate(0 0)">
      <circle id="XMLID_224_" cx="4.186" cy="4.186" r="4.186" transform="translate(8.399 9.418)" fill="none" stroke="#e30613" stroke-linecap="round" stroke-linejoin="round" stroke-miterlimit="10" stroke-width="2"/>
      <path id="XMLID_242_" d="M28.861,10.708,27.815,8.9a2.092,2.092,0,0,0-2.859-.766l-.55.318A3.14,3.14,0,0,1,19.7,5.729V5.093A2.092,2.092,0,0,0,17.6,3H15.512a2.092,2.092,0,0,0-2.093,2.093v.636A3.139,3.139,0,0,1,8.71,8.448l-.55-.318A2.092,2.092,0,0,0,5.3,8.9L4.254,10.708a2.092,2.092,0,0,0,.766,2.859l.55.318a3.139,3.139,0,0,1,0,5.437l-.55.318A2.092,2.092,0,0,0,4.254,22.5L5.3,24.311a2.092,2.092,0,0,0,2.859.766l.55-.318a3.139,3.139,0,0,1,4.709,2.719v.636a2.092,2.092,0,0,0,2.093,2.093H17.6A2.092,2.092,0,0,0,19.7,28.113v-.636a3.139,3.139,0,0,1,4.709-2.719l.55.318a2.092,2.092,0,0,0,2.859-.766L28.861,22.5A2.092,2.092,0,0,0,28.1,19.64l-.55-.318a3.139,3.139,0,0,1,0-5.437l.55-.318A2.092,2.092,0,0,0,28.861,10.708Z" transform="translate(-3.974 -3)" fill="none" stroke="#e30613" stroke-linecap="round" stroke-linejoin="round" stroke-miterlimit="10" stroke-width="2"/>
    </g>
  </g>
</svg>
