<svg id="Group_17" data-name="Group 17" xmlns="http://www.w3.org/2000/svg" width="28.85" height="22.958" viewBox="0 0 28.85 22.958">
  <g id="home_1_" data-name="home (1)" transform="translate(0)">
    <g id="Group_138" data-name="Group 138" transform="translate(0)">
      <path id="Path_68" data-name="Path 68" d="M76.005,120.939l-10.289,8.482a.253.253,0,0,1-.009.054.234.234,0,0,0-.009.053v8.589a1.162,1.162,0,0,0,1.145,1.145h6.871v-6.871H78.3v6.872h6.871a1.163,1.163,0,0,0,1.145-1.146v-8.589a.243.243,0,0,0-.018-.107Z" transform="translate(-61.58 -116.305)" fill="#fff"/>
      <path id="Path_69" data-name="Path 69" d="M28.65,58.178l-3.919-3.257v-7.3a.552.552,0,0,0-.573-.573H20.723a.551.551,0,0,0-.573.573V51.11l-4.366-3.651a2.219,2.219,0,0,0-2.72,0L.2,58.178a.52.52,0,0,0-.2.385.58.58,0,0,0,.125.421l1.109,1.324a.612.612,0,0,0,.376.2.665.665,0,0,0,.43-.125L14.424,50.054,26.807,60.38a.551.551,0,0,0,.376.125h.054a.611.611,0,0,0,.376-.2l1.11-1.324a.58.58,0,0,0,.125-.421A.522.522,0,0,0,28.65,58.178Z" transform="translate(0.001 -46.994)" fill="#fff"/>
    </g>
  </g>
</svg>
