<svg id="hot-sale" xmlns="http://www.w3.org/2000/svg" width="11.806" height="14.742" viewBox="0 0 11.806 14.742">
  <path id="Path_51" data-name="Path 51" d="M297.84,338.724c-.125,0-.25.113-.25.493s.125.493.25.493.249-.113.249-.493S297.964,338.724,297.84,338.724Z" transform="translate(-290.482 -328.962)" fill="#e30613"/>
  <path id="Path_52" data-name="Path 52" d="M196.893,273.787c-.125,0-.25.113-.25.493s.125.493.25.493.25-.113.25-.493S197.017,273.787,196.893,273.787Z" transform="translate(-192.444 -265.897)" fill="#e30613"/>
  <path id="Path_53" data-name="Path 53" d="M61.16,5.23a16.289,16.289,0,0,1-2.4-3.372A7.763,7.763,0,0,1,58.183.491L58.054,0l-.464.207a4.638,4.638,0,0,0-2.055,2.046,4.678,4.678,0,0,0-.43,2.071.667.667,0,0,1-1.138.474L53.1,3.934l-.3.41c-.031.043-.758,1.045-.89,1.245a5.9,5.9,0,1,0,10.832,3.25A5.611,5.611,0,0,0,61.16,5.23ZM58.3,11.361a1.014,1.014,0,0,1-1.055-1.106,1.056,1.056,0,1,1,2.11,0A1.014,1.014,0,0,1,58.3,11.361Zm-.578-4.026h.958L55.967,11.3h-.958ZM54.334,8.384a1.056,1.056,0,1,1,2.11,0,1.056,1.056,0,1,1-2.11,0Z" transform="translate(-50.94)" fill="#e30613"/>
</svg>
