<svg xmlns="http://www.w3.org/2000/svg" width="25.998" height="30.652" viewBox="0 0 25.998 30.652">
  <g id="Group_22" data-name="Group 22" transform="translate(0.2 0.2)">
    <g id="user_people_person_users_man" data-name="user people person users man" transform="translate(0 0)">
      <path id="Path_31" data-name="Path 31" d="M26.8,16.228a1.164,1.164,0,1,0-1.641,1.652,10.472,10.472,0,0,1,3.107,7.447c0,1.42-4.084,3.491-10.472,3.491S7.327,26.746,7.327,25.326a10.472,10.472,0,0,1,3.06-7.412,1.16,1.16,0,0,0-1.641-1.641A12.706,12.706,0,0,0,5,25.326c0,3.782,6.6,5.818,12.8,5.818s12.8-2.036,12.8-5.818a12.729,12.729,0,0,0-3.793-9.1Z" transform="translate(-5 -0.892)" fill="#e30613" stroke="#e30613" stroke-width="0.4"/>
      <path id="Path_32" data-name="Path 32" d="M17.145,19.29A8.145,8.145,0,1,0,9,11.145,8.145,8.145,0,0,0,17.145,19.29Zm0-13.963a5.818,5.818,0,1,1-5.818,5.818A5.818,5.818,0,0,1,17.145,5.327Z" transform="translate(-4.346 -3)" fill="#e30613" stroke="#e30613" stroke-width="0.4"/>
    </g>
  </g>
</svg>
