<svg xmlns="http://www.w3.org/2000/svg" width="24.821" height="24.915" viewBox="0 0 24.821 24.915">
  <g id="loupe_2_" data-name="loupe (2)" transform="translate(-0.96)">
    <g id="Group_144" data-name="Group 144" transform="translate(0.96)">
      <path id="Path_82" data-name="Path 82" d="M24.943,19.633l-4.1-4.1a11.312,11.312,0,0,0,1.243-4.97A10.562,10.562,0,1,0,11.522,21.125a11.313,11.313,0,0,0,4.97-1.243l4.1,4.1a3,3,0,0,0,4.349,0A3.238,3.238,0,0,0,24.943,19.633Zm-13.42-.994A8.077,8.077,0,1,1,19.6,10.562,8.061,8.061,0,0,1,11.522,18.639Z" transform="translate(-0.96 0)" fill="#e30613"/>
    </g>
  </g>
</svg>
