<svg xmlns="http://www.w3.org/2000/svg" width="24.378" height="31.647" viewBox="0 0 24.378 31.647">
  <g id="Group_20" data-name="Group 20" transform="translate(0.516 0.5)">
    <g id="sort" transform="translate(0 0)">
      <g id="Group_140" data-name="Group 140" transform="translate(0 0)">
        <g id="Group_139" data-name="Group 139">
          <path id="Path_78" data-name="Path 78" d="M73.375,7.522,67.987.339a.93.93,0,0,0-1.436,0L61.164,7.522a.9.9,0,0,0,.718,1.436h2.694v17.06a.9.9,0,0,0,.9.9h3.592a.887.887,0,0,0,.886-.9V8.958h2.706A.9.9,0,0,0,73.375,7.522Z" transform="translate(-60.983 0)" fill="#e30613" stroke="#fff" stroke-width="1"/>
        </g>
      </g>
      <g id="Group_142" data-name="Group 142" transform="translate(10.774 3.711)">
        <g id="Group_141" data-name="Group 141">
          <path id="Path_79" data-name="Path 79" d="M252.658,79.959h-2.706V62.9a.887.887,0,0,0-.886-.9h-3.591a.9.9,0,0,0-.9.9v17.06h-2.694a.9.9,0,0,0-.718,1.436l5.387,7.183a.9.9,0,0,0,1.436,0l5.387-7.183A.9.9,0,0,0,252.658,79.959Z" transform="translate(-240.984 -62.001)" fill="#e30613" stroke="#fff" stroke-width="1"/>
        </g>
      </g>
    </g>
  </g>
</svg>
